<?xml version="1.0" standalone="no"?>
<!DOCTYPE svg PUBLIC "-//W3C//DTD SVG 20010904//EN"
 "http://www.w3.org/TR/2001/REC-SVG-20010904/DTD/svg10.dtd">
<svg version="1.0" xmlns="http://www.w3.org/2000/svg"
 width="920.000000pt" height="920.000000pt" viewBox="0 0 920.000000 920.000000"
 preserveAspectRatio="xMidYMid meet">

<g transform="translate(0.000000,920.000000) scale(0.100000,-0.100000)"
fill="#FF0000" stroke="none">
<path d="M4375 9193 c-1140 -54 -2217 -532 -3025 -1342 -706 -707 -1159 -1606
-1299 -2576 -38 -263 -45 -375 -44 -690 0 -343 17 -535 73 -833 260 -1383
1133 -2566 2380 -3225 519 -274 1055 -434 1705 -509 148 -17 723 -17 875 0
871 97 1597 374 2280 871 350 254 737 641 991 991 488 671 769 1400 866 2243
23 201 23 756 0 957 -58 495 -173 929 -362 1365 -173 400 -428 805 -723 1150
-110 128 -369 387 -497 497 -338 288 -731 537 -1130 713 -656 290 -1372 423
-2090 388z m510 -2089 c192 -29 352 -78 535 -165 958 -458 1353 -1613 877
-2564 -56 -113 -132 -235 -146 -235 -5 0 -11 6 -14 14 -3 8 -26 26 -51 41 -36
21 -58 26 -120 28 -42 1 -76 2 -76 3 0 1 24 38 54 81 147 215 236 450 271 716
50 389 -40 772 -262 1107 -100 150 -293 345 -438 442 -224 148 -456 237 -708
268 -138 18 -413 8 -539 -19 -884 -190 -1445 -1054 -1258 -1939 41 -194 137
-418 246 -574 30 -43 54 -79 54 -81 0 -2 -33 -4 -74 -4 -78 -1 -110 -13 -165
-58 l-31 -26 -46 72 c-64 98 -155 293 -197 419 -156 470 -122 980 96 1425 192
392 490 690 880 879 226 110 420 162 712 190 70 7 297 -4 400 -20z m-12 -399
c397 -71 752 -309 987 -659 280 -419 319 -995 100 -1464 -43 -91 -145 -250
-203 -317 l-35 -40 -111 -1 c-61 -1 -111 1 -111 3 0 3 36 43 79 89 170 179
282 397 337 655 25 115 25 389 1 507 -112 550 -541 972 -1085 1067 -92 17
-323 22 -407 10 -577 -82 -1027 -510 -1142 -1085 -23 -113 -23 -382 0 -493 53
-259 170 -485 344 -668 40 -42 73 -78 73 -81 0 -2 -50 -5 -111 -5 l-111 0 -53
66 c-145 180 -239 380 -296 626 -30 132 -37 398 -15 536 56 339 195 609 432
844 246 244 549 386 914 429 70 8 327 -4 413 -19z m-156 -355 c111 -56 192
-160 224 -290 15 -61 18 -227 7 -337 l-8 -71 188 -4 c205 -3 216 -6 281 -70
19 -18 46 -58 60 -88 23 -49 26 -66 24 -155 -1 -55 -2 -138 -2 -184 0 -46 -7
-110 -15 -141 -10 -39 -13 -81 -9 -128 4 -55 1 -84 -16 -142 -19 -63 -31 -82
-80 -131 -43 -43 -60 -67 -64 -94 -14 -87 -86 -183 -169 -227 -41 -22 -56 -23
-273 -26 -319 -5 -467 16 -638 89 -67 28 -74 29 -238 29 -200 0 -184 -11 -222
155 -43 181 -58 283 -64 427 -9 197 15 299 88 383 40 45 119 85 170 85 47 0
98 37 186 137 80 91 119 146 159 223 26 51 28 66 34 215 7 169 16 207 65 271
27 36 79 71 134 90 60 22 112 17 178 -16z m1323 -2219 c68 -36 74 -61 75 -283
l0 -197 615 -3 c685 -3 646 1 691 -71 28 -45 22 -118 -15 -156 -14 -15 -197
-146 -406 -292 -208 -145 -379 -266 -379 -269 0 -3 171 -124 381 -270 209
-146 391 -278 404 -293 18 -21 24 -41 24 -73 0 -63 -23 -102 -73 -125 -40 -18
-79 -19 -891 -19 -826 0 -851 1 -890 20 -68 33 -70 40 -76 275 l-5 210 -897 3
-898 2 0 -206 c0 -190 -2 -209 -20 -239 -42 -67 -7 -65 -948 -65 -810 0 -849
1 -889 19 -50 23 -73 62 -73 125 0 32 6 52 24 73 13 15 195 147 404 293 210
146 381 267 381 270 1 3 -174 127 -387 276 -247 172 -395 282 -409 304 -45 65
-18 155 57 192 32 17 84 18 637 18 l602 0 3 204 c3 229 7 242 79 278 32 17
121 18 1439 18 1352 0 1407 -1 1440 -19z"/>
<path d="M4573 6134 c-14 -22 -17 -53 -19 -168 -2 -115 -6 -152 -23 -200 -45
-125 -135 -256 -276 -398 -94 -95 -181 -148 -244 -148 -47 0 -57 -8 -77 -55
-29 -71 -16 -314 28 -512 l11 -53 123 0 c112 0 126 -2 165 -25 121 -69 318
-105 590 -105 160 0 179 2 201 20 38 29 52 71 42 127 -4 27 -7 57 -6 68 3 25
29 45 58 45 89 0 130 96 82 194 l-21 44 31 48 c36 53 42 115 17 148 -21 28
-19 47 11 105 26 49 26 53 13 104 l-14 52 -271 5 c-292 5 -304 8 -304 59 0 14
10 76 22 136 16 80 22 148 22 250 1 127 -1 144 -23 188 -24 49 -75 97 -104 97
-9 0 -24 -12 -34 -26z"/>
<path d="M3360 3370 l0 -510 1240 0 1240 0 0 510 0 510 -1240 0 -1240 0 0
-510z"/>
<path d="M2355 3354 c11 -8 143 -101 294 -207 150 -105 281 -202 290 -216 22
-35 20 -111 -5 -144 -10 -15 -149 -116 -308 -227 l-289 -200 549 0 549 0 -2
112 -2 113 -133 5 c-150 6 -167 12 -198 76 -19 38 -20 62 -20 372 l0 332 -372
0 c-335 -1 -371 -2 -353 -16z"/>
<path d="M6115 3040 c0 -181 -3 -342 -7 -358 -5 -17 -24 -44 -43 -61 l-36 -31
-129 0 -130 0 0 -115 0 -115 547 0 546 0 -259 180 c-142 98 -278 195 -301 215
-43 36 -67 90 -56 123 21 68 29 75 292 259 146 103 281 197 300 210 l34 23
-379 0 -379 0 0 -330z"/>
</g>
</svg>
