<?xml version="1.0" standalone="no"?>
<!DOCTYPE svg PUBLIC "-//W3C//DTD SVG 20010904//EN"
 "http://www.w3.org/TR/2001/REC-SVG-20010904/DTD/svg10.dtd">
<svg version="1.0" xmlns="http://www.w3.org/2000/svg"
 width="1042.000000pt" height="1042.000000pt" viewBox="0 0 1042.000000 1042.000000"
 preserveAspectRatio="xMidYMid meet">

<g transform="translate(0.000000,1042.000000) scale(0.100000,-0.100000)"
fill="#FF0000" stroke="none">
<path d="M5050 7814 c-560 -43 -1063 -240 -1485 -581 -120 -97 -316 -296 -407
-413 -293 -378 -479 -830 -538 -1305 -6 -49 -13 -160 -15 -245 -24 -964 491
-1863 1340 -2337 260 -145 532 -240 846 -294 162 -28 576 -36 739 -14 588 80
1112 337 1520 745 408 408 665 932 745 1520 22 163 14 577 -14 739 -54 314
-149 586 -294 846 -455 815 -1296 1322 -2222 1339 -93 2 -190 1 -215 0z m-880
-1140 c346 -44 711 -171 948 -328 l42 -29 0 -1034 0 -1034 -42 26 c-94 58
-297 149 -436 195 -229 75 -464 118 -751 136 l-111 7 0 1045 0 1045 118 -7
c64 -4 169 -14 232 -22z m2430 -1019 l0 -1045 -57 -1 c-32 0 -67 -2 -78 -4
-11 -1 -63 -6 -115 -10 -211 -14 -518 -82 -720 -160 -99 -38 -295 -133 -342
-167 l-28 -19 0 1036 0 1035 62 41 c300 193 785 328 1216 338 l62 1 0 -1045z
m-2889 -222 c0 -472 2 -867 4 -877 7 -38 27 -44 165 -51 486 -22 921 -146
1229 -349 47 -31 91 -56 99 -56 8 0 51 24 95 54 320 210 727 325 1247 352 69
3 131 11 138 16 9 8 12 198 12 889 l0 879 125 0 125 0 0 -1112 0 -1113 -751 3
c-666 2 -754 1 -775 -13 -13 -8 -24 -22 -24 -30 0 -34 -88 -58 -204 -57 -103
1 -168 23 -182 61 -8 20 -20 30 -44 35 -19 3 -362 6 -764 6 -402 0 -732 3
-734 8 -1 4 -3 504 -5 1110 l-2 1102 123 0 122 0 1 -857z"/>
</g>
</svg>
