<?xml version="1.0" standalone="no"?>
<!DOCTYPE svg PUBLIC "-//W3C//DTD SVG 20010904//EN"
 "http://www.w3.org/TR/2001/REC-SVG-20010904/DTD/svg10.dtd">
<svg version="1.0" xmlns="http://www.w3.org/2000/svg"
 width="1264.000000pt" height="1110.000000pt" viewBox="0 0 1264.000000 1110.000000"
 preserveAspectRatio="xMidYMid meet">

<g transform="translate(0.000000,1110.000000) scale(0.100000,-0.100000)"
fill="#FF0000" stroke="none">
<path d="M6022 11089 c-1694 -92 -3242 -945 -4225 -2329 -886 -1246 -1215
-2790 -916 -4300 181 -918 594 -1769 1212 -2504 142 -168 465 -491 633 -633
568 -478 1202 -831 1889 -1053 1125 -362 2343 -356 3465 20 1884 629 3295
2229 3679 4170 190 959 129 1931 -179 2850 -226 678 -576 1296 -1048 1850
-136 160 -442 466 -602 602 -358 305 -754 566 -1165 768 -848 417 -1799 611
-2743 559z m318 -2030 c319 -54 704 -194 921 -334 88 -57 229 -196 284 -280
121 -185 180 -446 155 -687 -6 -62 -18 -157 -26 -210 -18 -125 -18 -182 2
-293 30 -168 4 -315 -91 -513 -30 -62 -66 -156 -80 -209 -85 -321 -272 -624
-516 -840 -392 -346 -786 -390 -1172 -132 -88 59 -300 276 -379 389 -75 107
-171 285 -218 405 -36 94 -202 639 -226 740 -21 91 -13 150 29 239 l34 71 -19
245 c-31 396 -16 533 77 727 79 162 235 341 403 460 105 75 317 200 370 217
117 39 243 41 452 5z m995 -3506 c88 -59 180 -103 365 -173 234 -88 644 -263
720 -307 173 -102 286 -276 405 -627 117 -349 192 -760 245 -1343 22 -247 18
-355 -19 -438 -55 -124 -114 -162 -395 -254 -362 -119 -775 -214 -1321 -305
-566 -94 -902 -112 -1420 -75 -491 35 -1102 143 -1545 274 -386 114 -648 198
-686 220 -51 30 -87 75 -110 136 -23 61 -23 385 0 614 64 644 179 1114 363
1478 134 264 176 296 693 510 517 215 666 285 744 347 39 31 77 59 83 64 10 6
12 -103 10 -531 l-2 -538 326 -870 c180 -478 377 -1004 440 -1168 l113 -298
69 173 c244 611 860 2210 864 2243 2 22 -21 239 -51 483 -31 243 -56 461 -56
484 l0 41 53 -50 c28 -27 79 -67 112 -90z m-772 -587 c-162 -247 -210 -313
-219 -303 -15 15 -374 565 -380 581 -3 8 28 4 88 -12 81 -22 115 -25 263 -26
177 0 248 11 395 62 30 11 56 18 58 17 1 -1 -91 -145 -205 -319z m-103 -386
c111 -69 184 -125 197 -151 10 -21 8 -52 -12 -175 -14 -82 -79 -477 -145 -878
-66 -401 -125 -746 -130 -767 -11 -41 -26 -50 -33 -21 -3 9 -72 420 -153 912
-94 571 -145 905 -141 922 5 20 34 45 112 98 192 128 193 128 305 60z"/>
</g>
</svg>
